<svg width="316" height="43" viewBox="0 0 316 43" fill="none" xmlns="http://www.w3.org/2000/svg">
<rect width="316" height="43" rx="21.5" fill="#F4F7FE"/>
<path d="M46.158 27.168C45.4393 27.168 44.814 27.0373 44.282 26.776C43.75 26.5147 43.3393 26.1507 43.05 25.684C42.7607 25.2173 42.616 24.676 42.616 24.06H43.848C43.848 24.4427 43.9367 24.7973 44.114 25.124C44.2913 25.4413 44.548 25.698 44.884 25.894C45.2293 26.0807 45.654 26.174 46.158 26.174C46.8207 26.174 47.334 26.0153 47.698 25.698C48.062 25.3807 48.244 24.984 48.244 24.508C48.244 24.116 48.16 23.8033 47.992 23.57C47.824 23.3273 47.5953 23.1313 47.306 22.982C47.026 22.8327 46.6993 22.702 46.326 22.59C45.962 22.478 45.5793 22.352 45.178 22.212C44.422 21.9507 43.862 21.6287 43.498 21.246C43.134 20.854 42.952 20.3453 42.952 19.72C42.9427 19.1973 43.064 18.7353 43.316 18.334C43.568 17.9233 43.9227 17.606 44.38 17.382C44.8467 17.1487 45.3973 17.032 46.032 17.032C46.6573 17.032 47.1987 17.1487 47.656 17.382C48.1227 17.6153 48.482 17.9373 48.734 18.348C48.9953 18.7587 49.1307 19.2253 49.14 19.748H47.908C47.908 19.4773 47.838 19.2113 47.698 18.95C47.558 18.6793 47.3433 18.46 47.054 18.292C46.774 18.124 46.4193 18.04 45.99 18.04C45.458 18.0307 45.0193 18.166 44.674 18.446C44.338 18.726 44.17 19.1133 44.17 19.608C44.17 20.028 44.2867 20.35 44.52 20.574C44.7627 20.798 45.0987 20.9847 45.528 21.134C45.9573 21.274 46.452 21.4373 47.012 21.624C47.4787 21.792 47.8987 21.988 48.272 22.212C48.6453 22.436 48.9347 22.7253 49.14 23.08C49.3547 23.4347 49.462 23.8873 49.462 24.438C49.462 24.9047 49.3407 25.348 49.098 25.768C48.8553 26.1787 48.4867 26.5147 47.992 26.776C47.5067 27.0373 46.8953 27.168 46.158 27.168ZM53.9018 27.168C53.2391 27.168 52.6511 27.0187 52.1377 26.72C51.6244 26.412 51.2184 25.9873 50.9197 25.446C50.6304 24.9047 50.4857 24.2653 50.4857 23.528C50.4857 22.8 50.6304 22.1653 50.9197 21.624C51.2091 21.0733 51.6104 20.6487 52.1237 20.35C52.6464 20.042 53.2484 19.888 53.9297 19.888C54.6018 19.888 55.1804 20.042 55.6657 20.35C56.1604 20.6487 56.5384 21.0453 56.7997 21.54C57.0611 22.0347 57.1917 22.5667 57.1917 23.136C57.1917 23.2387 57.1871 23.3413 57.1778 23.444C57.1778 23.5467 57.1778 23.6633 57.1778 23.794H51.6477C51.6757 24.326 51.7971 24.7693 52.0117 25.124C52.2357 25.4693 52.5111 25.7307 52.8377 25.908C53.1737 26.0853 53.5284 26.174 53.9018 26.174C54.3871 26.174 54.7931 26.062 55.1197 25.838C55.4464 25.614 55.6844 25.3107 55.8337 24.928H56.9957C56.8091 25.572 56.4498 26.1087 55.9178 26.538C55.3951 26.958 54.7231 27.168 53.9018 27.168ZM53.9018 20.882C53.3417 20.882 52.8424 21.0547 52.4037 21.4C51.9744 21.736 51.7271 22.2307 51.6617 22.884H56.0298C56.0018 22.2587 55.7871 21.7687 55.3858 21.414C54.9844 21.0593 54.4898 20.882 53.9018 20.882ZM60.7805 27.168C60.2018 27.168 59.7211 27.07 59.3385 26.874C58.9558 26.678 58.6711 26.4167 58.4845 26.09C58.2978 25.7633 58.2045 25.4087 58.2045 25.026C58.2045 24.3167 58.4751 23.7707 59.0165 23.388C59.5578 23.0053 60.2951 22.814 61.2285 22.814H63.1045V22.73C63.1045 22.1233 62.9458 21.666 62.6285 21.358C62.3111 21.0407 61.8865 20.882 61.3545 20.882C60.8971 20.882 60.5005 20.9987 60.1645 21.232C59.8378 21.456 59.6325 21.7873 59.5485 22.226H58.3445C58.3911 21.722 58.5591 21.2973 58.8485 20.952C59.1471 20.6067 59.5158 20.3453 59.9545 20.168C60.3931 19.9813 60.8598 19.888 61.3545 19.888C62.3251 19.888 63.0531 20.1493 63.5385 20.672C64.0331 21.1853 64.2805 21.8713 64.2805 22.73V27H63.2305L63.1605 25.754C62.9645 26.146 62.6751 26.482 62.2925 26.762C61.9191 27.0327 61.4151 27.168 60.7805 27.168ZM60.9625 26.174C61.4105 26.174 61.7931 26.0573 62.1105 25.824C62.4371 25.5907 62.6845 25.2873 62.8525 24.914C63.0205 24.5407 63.1045 24.1487 63.1045 23.738V23.724H61.3265C60.6358 23.724 60.1458 23.8453 59.8565 24.088C59.5765 24.3213 59.4365 24.6153 59.4365 24.97C59.4365 25.334 59.5671 25.628 59.8285 25.852C60.0991 26.0667 60.4771 26.174 60.9625 26.174ZM65.7647 27V20.056H66.8287L66.9267 21.386C67.1413 20.9287 67.468 20.5647 67.9067 20.294C68.3453 20.0233 68.8867 19.888 69.5307 19.888V21.12H69.2087C68.798 21.12 68.42 21.1947 68.0747 21.344C67.7293 21.484 67.454 21.7267 67.2487 22.072C67.0433 22.4173 66.9407 22.8933 66.9407 23.5V27H65.7647ZM73.5028 27.168C72.8402 27.168 72.2428 27.0187 71.7108 26.72C71.1882 26.412 70.7728 25.9873 70.4648 25.446C70.1662 24.8953 70.0168 24.256 70.0168 23.528C70.0168 22.8 70.1662 22.1653 70.4648 21.624C70.7728 21.0733 71.1882 20.6487 71.7108 20.35C72.2428 20.042 72.8402 19.888 73.5028 19.888C74.3242 19.888 75.0148 20.1027 75.5748 20.532C76.1442 20.9613 76.5035 21.5353 76.6528 22.254H75.4488C75.3555 21.8247 75.1268 21.4933 74.7628 21.26C74.3988 21.0173 73.9742 20.896 73.4888 20.896C73.0968 20.896 72.7282 20.994 72.3828 21.19C72.0375 21.386 71.7575 21.68 71.5428 22.072C71.3282 22.464 71.2208 22.9493 71.2208 23.528C71.2208 24.1067 71.3282 24.592 71.5428 24.984C71.7575 25.376 72.0375 25.6747 72.3828 25.88C72.7282 26.076 73.0968 26.174 73.4888 26.174C73.9742 26.174 74.3988 26.0573 74.7628 25.824C75.1268 25.5813 75.3555 25.2407 75.4488 24.802H76.6528C76.5128 25.502 76.1582 26.0713 75.5888 26.51C75.0195 26.9487 74.3242 27.168 73.5028 27.168ZM78.0152 27V16.92H79.1912V21.246C79.4246 20.8167 79.7559 20.4853 80.1852 20.252C80.6146 20.0093 81.0812 19.888 81.5852 19.888C82.3879 19.888 83.0319 20.14 83.5172 20.644C84.0026 21.1387 84.2452 21.904 84.2452 22.94V27H83.0832V23.066C83.0832 21.6193 82.4999 20.896 81.3332 20.896C80.7266 20.896 80.2179 21.1153 79.8072 21.554C79.3966 21.9833 79.1912 22.5993 79.1912 23.402V27H78.0152Z" fill="#8F9BBA"/>
<circle cx="25" cy="21" r="4.3" stroke="#2B3674" stroke-width="1.4"/>
<line x1="30.0101" y1="27" x2="28" y2="24.99" stroke="#2B3674" stroke-width="1.4" stroke-linecap="round"/>
</svg>
