<svg width="10" height="14" viewBox="0 0 10 14" fill="none" xmlns="http://www.w3.org/2000/svg">
<path d="M0.914828 7.358C0.914828 5.294 1.25083 3.686 1.92283 2.534C2.59483 1.37 3.77083 0.788 5.45083 0.788C7.11883 0.788 8.28883 1.37 8.96083 2.534C9.63283 3.686 9.96883 5.294 9.96883 7.358C9.96883 9.458 9.63283 11.09 8.96083 12.254C8.28883 13.418 7.11883 14 5.45083 14C3.77083 14 2.59483 13.418 1.92283 12.254C1.25083 11.09 0.914828 9.458 0.914828 7.358ZM8.34883 7.358C8.34883 6.314 8.27683 5.432 8.13283 4.712C8.00083 3.98 7.71883 3.392 7.28683 2.948C6.86683 2.504 6.25483 2.282 5.45083 2.282C4.63483 2.282 4.01083 2.504 3.57883 2.948C3.15883 3.392 2.87683 3.98 2.73283 4.712C2.60083 5.432 2.53483 6.314 2.53483 7.358C2.53483 8.438 2.60083 9.344 2.73283 10.076C2.87683 10.808 3.15883 11.396 3.57883 11.84C4.01083 12.284 4.63483 12.506 5.45083 12.506C6.25483 12.506 6.86683 12.284 7.28683 11.84C7.71883 11.396 8.00083 10.808 8.13283 10.076C8.27683 9.344 8.34883 8.438 8.34883 7.358Z" fill="#24306E" fill-opacity="0.6"/>
</svg>
