<svg width="181" height="181" viewBox="0 0 181 181" fill="none" xmlns="http://www.w3.org/2000/svg">
<path d="M115.565 51.6823C116.564 50.6827 117.126 49.3269 117.126 47.9132C117.126 46.4996 116.564 45.1438 115.565 44.1442C114.565 43.1446 113.209 42.583 111.796 42.583C110.382 42.583 109.026 43.1446 108.027 44.1442L58.5606 93.6208L41.0356 76.0852C40.5406 75.5903 39.953 75.1976 39.3063 74.9298C38.6596 74.6619 37.9665 74.524 37.2665 74.524C36.5665 74.524 35.8734 74.6619 35.2267 74.9298C34.58 75.1976 33.9924 75.5903 33.4975 76.0852C33.0025 76.5802 32.6099 77.1678 32.342 77.8145C32.0742 78.4612 31.9363 79.1543 31.9363 79.8543C31.9363 80.5542 32.0742 81.2474 32.342 81.8941C32.6099 82.5407 33.0025 83.1283 33.4975 83.6233L54.7915 104.917C55.286 105.413 55.8735 105.806 56.5202 106.075C57.167 106.343 57.8603 106.481 58.5606 106.481C59.2608 106.481 59.9541 106.343 60.6009 106.075C61.2477 105.806 61.8351 105.413 62.3296 104.917L115.565 51.6823Z" fill="#24306E" fill-opacity="0.7"/>
<path d="M28.5553 0C24.8054 0 21.0922 0.738605 17.6277 2.17364C14.1632 3.60868 11.0153 5.71204 8.36366 8.36365C3.0085 13.7188 0 20.9819 0 28.5553V120.503C0 136.282 12.7764 149.058 28.5553 149.058H96.3556C97.1541 145.119 98.815 141.499 101.147 138.411H28.5553C23.8057 138.411 19.2507 136.524 15.8922 133.166C12.5338 129.807 10.647 125.252 10.647 120.503V28.5553C10.647 18.6642 18.6642 10.647 28.5553 10.647H120.503C130.394 10.647 138.411 18.6642 138.411 28.5553V74.9762C141.936 74.3846 145.534 74.3846 149.058 74.9762V28.5553C149.058 12.7764 136.282 0 120.503 0H28.5553Z" fill="#24306E" fill-opacity="0.7"/>
<path d="M165.03 106.471C165.03 112.118 162.786 117.535 158.793 121.528C154.799 125.521 149.383 127.765 143.736 127.765C138.088 127.765 132.672 125.521 128.678 121.528C124.685 117.535 122.441 112.118 122.441 106.471C122.441 100.823 124.685 95.407 128.678 91.4136C132.672 87.4202 138.088 85.1768 143.736 85.1768C149.383 85.1768 154.799 87.4202 158.793 91.4136C162.786 95.407 165.03 100.823 165.03 106.471ZM181 154.382C181 167.638 170.353 181 143.736 181C117.118 181 106.471 167.691 106.471 154.382C106.471 150.147 108.154 146.085 111.149 143.089C114.144 140.094 118.206 138.412 122.441 138.412H165.03C169.265 138.412 173.327 140.094 176.322 143.089C179.317 146.085 181 150.147 181 154.382Z" fill="#24306E" fill-opacity="0.7"/>
</svg>
