<svg width="36" height="33" viewBox="0 0 36 33" fill="none" xmlns="http://www.w3.org/2000/svg">
<g clip-path="url(#clip0_14_2233)">
<path d="M16.5 9.625H19.5V12.375H16.5V9.625ZM18 23.375C18.825 23.375 19.5 22.7563 19.5 22V16.5C19.5 15.7437 18.825 15.125 18 15.125C17.175 15.125 16.5 15.7437 16.5 16.5V22C16.5 22.7563 17.175 23.375 18 23.375ZM18 2.75C9.72 2.75 3 8.91 3 16.5C3 24.09 9.72 30.25 18 30.25C26.28 30.25 33 24.09 33 16.5C33 8.91 26.28 2.75 18 2.75ZM18 27.5C11.385 27.5 6 22.5637 6 16.5C6 10.4363 11.385 5.5 18 5.5C24.615 5.5 30 10.4363 30 16.5C30 22.5637 24.615 27.5 18 27.5Z" fill="#A3AED0"/>
</g>
<defs>
<clipPath id="clip0_14_2233">
<rect width="36" height="33" fill="white"/>
</clipPath>
</defs>
</svg>
