<svg width="36" height="32" viewBox="0 0 36 32" fill="none" xmlns="http://www.w3.org/2000/svg">
<g clip-path="url(#clip0_14_2236)">
<path d="M28.935 23.053L27 21.333V14.6663C27 10.573 24.54 7.14634 20.25 6.23967V5.33301C20.25 4.22634 19.245 3.33301 18 3.33301C16.755 3.33301 15.75 4.22634 15.75 5.33301V6.23967C11.445 7.14634 8.99995 10.5597 8.99995 14.6663V21.333L7.06496 23.053C6.11996 23.893 6.77995 25.333 8.11495 25.333H27.87C29.22 25.333 29.88 23.893 28.935 23.053ZM24 22.6663H12V14.6663C12 11.3597 14.265 8.66634 18 8.66634C21.735 8.66634 24 11.3597 24 14.6663V22.6663ZM18 29.333C19.65 29.333 21 28.133 21 26.6663H15C15 28.133 16.335 29.333 18 29.333Z" fill="#A3AED0"/>
</g>
<defs>
<clipPath id="clip0_14_2236">
<rect width="36" height="32" fill="white"/>
</clipPath>
</defs>
</svg>
