<svg width="207" height="147" viewBox="0 0 207 147" fill="none" xmlns="http://www.w3.org/2000/svg">
<path d="M87.975 29.4C70.8266 29.4 56.925 42.5629 56.925 58.8C56.925 75.0376 70.8266 88.2 87.975 88.2C105.124 88.2 119.025 75.0376 119.025 58.8C119.025 42.5629 105.124 29.4 87.975 29.4ZM72.45 58.8C72.45 50.6817 79.4007 44.1 87.975 44.1C96.5489 44.1 103.5 50.6817 103.5 58.8C103.5 66.9183 96.5489 73.5 87.975 73.5C79.4007 73.5 72.45 66.9183 72.45 58.8ZM0 22.05C0 9.87213 10.4262 0 23.2875 0H152.663C165.523 0 175.95 9.87213 175.95 22.05V95.55C175.95 107.727 165.523 117.6 152.663 117.6H23.2875C10.4262 117.6 0 107.727 0 95.55V22.05ZM23.2875 14.7C19.0004 14.7 15.525 17.9907 15.525 22.05V29.4H23.2875C27.5746 29.4 31.05 26.1093 31.05 22.05V14.7H23.2875ZM15.525 73.5H23.2875C36.1488 73.5 46.575 83.3725 46.575 95.55V102.9H129.375V95.55C129.375 83.3725 139.802 73.5 152.663 73.5H160.425V44.1H152.663C139.802 44.1 129.375 34.2279 129.375 22.05V14.7H46.575V22.05C46.575 34.2279 36.1488 44.1 23.2875 44.1H15.525V73.5ZM160.425 29.4V22.05C160.425 17.9907 156.949 14.7 152.663 14.7H144.9V22.05C144.9 26.1093 148.376 29.4 152.663 29.4H160.425ZM160.425 88.2H152.663C148.376 88.2 144.9 91.4908 144.9 95.55V102.9H152.663C156.949 102.9 160.425 99.6092 160.425 95.55V88.2ZM15.525 95.55C15.525 99.6092 19.0004 102.9 23.2875 102.9H31.05V95.55C31.05 91.4908 27.5746 88.2 23.2875 88.2H15.525V95.55ZM24.8542 132.3C30.2228 141.088 40.2574 147 51.7502 147H157.838C184.99 147 207 126.159 207 100.45V49C207 38.1181 200.756 28.6168 191.475 23.5334V100.45C191.475 118.04 176.415 132.3 157.838 132.3H24.8542Z" fill="#24306E" fill-opacity="0.7"/>
</svg>
