<svg width="113" height="108" viewBox="0 0 113 108" fill="none" xmlns="http://www.w3.org/2000/svg">
<path d="M35.0692 0C37.6713 0 40.2014 0.953707 42.3238 2.71586L43.2075 3.52013L56.6243 16.875H100.287C106.71 16.875 112.02 22.565 112.879 29.9557L112.971 31.0227L113 32.0625V92.8125C113 100.851 107.773 107.43 101.158 107.965L100.287 108H12.7125C5.98414 108 0.476633 101.755 0.0293229 93.852L0 92.8125V15.1875C0 7.1492 5.22715 0.569429 11.8421 0.0350318L12.7125 0H35.0692ZM43.2075 40.3549C41.2084 42.3448 38.7537 43.5476 36.1789 43.8169L35.0692 43.875L8.475 43.8682V92.8125C8.475 95.3755 10.0691 97.4936 12.1375 97.8291L12.7125 97.875H100.287C102.433 97.875 104.206 95.9702 104.487 93.4996L104.525 92.8125V32.0625C104.525 29.4995 102.931 27.3814 100.863 27.0462L100.287 27H56.6186L43.2075 40.3549ZM35.0692 10.125H12.7125C10.5672 10.125 8.79428 12.0295 8.5137 14.5006L8.475 15.1875V33.7432L35.0692 33.75C35.8622 33.75 36.6352 33.4842 37.3025 32.9898L37.7819 32.5766L48.4657 21.9308L37.7819 11.2984C37.1727 10.6919 36.4365 10.3048 35.6588 10.1743L35.0692 10.125Z" fill="#24306E"/>
</svg>
