<svg width="150" height="195" viewBox="0 0 150 195" fill="none" xmlns="http://www.w3.org/2000/svg">
<path d="M62.5 79.2188C62.5 75.8533 65.2982 73.125 68.75 73.125H112.5C115.951 73.125 118.75 75.8533 118.75 79.2188C118.75 82.5842 115.951 85.3125 112.5 85.3125H68.75C65.2982 85.3125 62.5 82.5842 62.5 79.2188ZM62.5 115.781C62.5 112.416 65.2982 109.688 68.75 109.688H112.5C115.951 109.688 118.75 112.416 118.75 115.781C118.75 119.146 115.951 121.875 112.5 121.875H68.75C65.2982 121.875 62.5 119.146 62.5 115.781ZM62.5 152.344C62.5 148.979 65.2982 146.25 68.75 146.25H112.5C115.951 146.25 118.75 148.979 118.75 152.344C118.75 155.709 115.951 158.438 112.5 158.438H68.75C65.2982 158.438 62.5 155.709 62.5 152.344ZM50 79.2188C50 84.2669 45.8026 88.3594 40.625 88.3594C35.4474 88.3594 31.25 84.2669 31.25 79.2188C31.25 74.1706 35.4474 70.0781 40.625 70.0781C45.8026 70.0781 50 74.1706 50 79.2188ZM50 115.781C50 120.829 45.8026 124.922 40.625 124.922C35.4474 124.922 31.25 120.829 31.25 115.781C31.25 110.733 35.4474 106.641 40.625 106.641C45.8026 106.641 50 110.733 50 115.781ZM40.625 161.484C45.8026 161.484 50 157.392 50 152.344C50 147.296 45.8026 143.203 40.625 143.203C35.4474 143.203 31.25 147.296 31.25 152.344C31.25 157.392 35.4474 161.484 40.625 161.484ZM38.5669 12.1875C41.1409 5.08706 48.0861 0 56.25 0H93.75C101.914 0 108.859 5.08706 111.433 12.1875H131.25C141.605 12.1875 150 20.3723 150 30.4688V176.719C150 186.815 141.605 195 131.25 195H18.75C8.39462 195 0 186.815 0 176.719V30.4688C0 20.3723 8.39462 12.1875 18.75 12.1875H38.5669ZM56.25 12.1875C52.7982 12.1875 50 14.9158 50 18.2812C50 21.6467 52.7982 24.375 56.25 24.375H93.75C97.2012 24.375 100 21.6467 100 18.2812C100 14.9158 97.2012 12.1875 93.75 12.1875H56.25ZM38.5669 24.375H18.75C15.2983 24.375 12.5 27.1033 12.5 30.4688V176.719C12.5 180.084 15.2983 182.812 18.75 182.812H131.25C134.701 182.812 137.5 180.084 137.5 176.719V30.4688C137.5 27.1033 134.701 24.375 131.25 24.375H111.433C108.859 31.4754 101.914 36.5625 93.75 36.5625H56.25C48.0861 36.5625 41.1409 31.4754 38.5669 24.375Z" fill="#24306E" fill-opacity="0.7"/>
</svg>
